<?xml version="1.0" standalone="no"?>
<!DOCTYPE svg PUBLIC "-//W3C//DTD SVG 20010904//EN"
 "http://www.w3.org/TR/2001/REC-SVG-20010904/DTD/svg10.dtd">
<svg version="1.0" xmlns="http://www.w3.org/2000/svg"
 width="1536.000000pt" height="546.000000pt" viewBox="0 0 1536.000000 546.000000"
 preserveAspectRatio="xMidYMid meet">

<g transform="translate(0.000000,546.000000) scale(0.100000,-0.100000)"
fill="#000000" stroke="none">
<path d="M7331 5229 c-65 -142 -141 -409 -162 -569 -6 -47 -12 -95 -15 -107
-3 -15 -68 -70 -197 -165 -105 -79 -276 -206 -379 -283 -104 -77 -188 -143
-188 -147 0 -4 83 -8 185 -8 102 0 185 -3 185 -7 0 -5 -48 -39 -107 -78 -58
-38 -120 -80 -137 -92 -17 -13 -51 -36 -76 -53 l-45 -30 885 0 885 0 18 41
c41 94 136 188 243 239 65 32 126 52 289 95 172 46 271 113 340 230 60 101 94
250 67 292 -6 10 -81 14 -294 17 -391 6 -393 7 -465 68 -110 93 -189 127 -317
137 l-79 6 -52 201 c-29 110 -55 207 -60 214 -5 8 -17 -3 -38 -36 -41 -66
-187 -356 -187 -371 0 -7 -5 -13 -11 -13 -10 0 -77 137 -147 300 -100 234 -91
226 -141 119z m834 -644 c60 -59 2 -162 -80 -141 -61 15 -83 83 -44 137 27 39
88 41 124 4z"/>
<path d="M10740 3461 c-14 -4 -43 -17 -65 -29 -204 -105 -171 -423 51 -488
132 -38 261 14 332 135 23 39 27 57 26 121 0 56 -5 85 -21 115 -28 53 -82 107
-129 130 -42 20 -154 29 -194 16z"/>
<path d="M6695 3341 c-171 -28 -304 -111 -364 -229 -32 -63 -54 -153 -60 -247
l-6 -90 -87 -3 -88 -3 0 -174 0 -175 85 0 85 0 2 -527 3 -528 195 -3 c107 -2
214 0 238 3 l42 6 0 525 0 524 155 0 155 0 0 175 0 175 -155 0 -155 0 0 44 c0
54 22 118 49 145 33 33 103 44 192 28 l75 -13 37 142 c20 77 39 148 42 156 17
44 -295 92 -440 69z"/>
<path d="M5384 3311 c-2 -2 -4 -440 -4 -972 l0 -967 35 -6 c19 -4 125 -6 235
-4 l200 2 -2 976 -3 975 -228 0 c-126 0 -231 -2 -233 -4z"/>
<path d="M11393 3313 l-23 -4 0 -969 0 -968 21 -5 c11 -3 112 -6 224 -7 200
-1 204 0 216 21 6 12 9 37 6 56 -11 65 0 66 74 9 103 -78 184 -101 359 -101
114 0 146 4 205 23 229 76 380 241 446 487 28 107 31 316 6 424 -59 248 -220
430 -442 501 -95 31 -282 38 -378 16 -75 -18 -149 -52 -219 -102 l-48 -34 -2
328 -3 327 -210 1 c-115 0 -220 -1 -232 -3z m894 -921 c68 -35 108 -77 139
-144 26 -58 29 -72 29 -178 0 -103 -3 -121 -26 -170 -35 -74 -67 -110 -131
-145 -48 -27 -62 -30 -143 -30 -78 0 -97 4 -140 27 -122 64 -182 185 -173 347
10 160 81 265 210 307 63 20 182 13 235 -14z"/>
<path d="M3268 3183 c-169 -3 -208 -6 -208 -17 0 -8 -29 -135 -66 -282 -36
-148 -94 -386 -129 -529 -34 -143 -71 -295 -81 -337 -10 -43 -21 -78 -25 -78
-7 0 -27 80 -96 375 -14 61 -41 173 -60 250 -32 133 -79 333 -109 475 -8 36
-19 82 -25 103 l-10 37 -237 0 -237 0 -84 -352 c-160 -678 -213 -890 -221
-881 -4 4 -12 28 -18 53 -52 233 -236 1020 -259 1113 l-17 67 -258 0 c-142 0
-258 -4 -258 -8 0 -23 499 -1774 511 -1793 10 -17 326 -24 474 -12 l89 8 53
215 c29 118 62 253 72 300 10 47 42 182 69 300 28 118 57 245 63 283 7 37 16
64 19 60 4 -5 14 -44 23 -88 16 -81 77 -352 162 -720 25 -110 54 -235 63 -277
13 -61 20 -78 37 -82 28 -8 427 -6 494 2 l55 7 109 370 c59 204 119 406 132
450 13 44 45 152 70 240 25 88 75 261 112 385 110 377 104 353 90 362 -6 4
-30 7 -52 6 -22 -2 -133 -4 -247 -5z"/>
<path d="M7688 3182 l-38 -3 0 -190 0 -189 270 0 270 0 2 -717 3 -718 238 -2
c174 -1 239 2 243 10 2 7 5 329 7 717 l3 705 275 5 274 5 0 188 0 188 -755 2
c-415 1 -772 1 -792 -1z"/>
<path d="M4175 2799 c-155 -26 -292 -96 -406 -209 -74 -72 -93 -99 -132 -180
-63 -133 -81 -221 -75 -379 4 -102 10 -141 32 -206 75 -221 254 -388 486 -455
94 -28 323 -38 425 -21 296 52 513 235 597 505 25 82 34 241 19 345 -26 175
-78 280 -200 401 -92 92 -218 160 -351 190 -91 21 -298 26 -395 9z m273 -394
c124 -37 202 -164 202 -327 0 -137 -50 -246 -140 -306 -60 -41 -121 -56 -194
-48 -207 21 -328 247 -256 480 54 173 210 254 388 201z"/>
<path d="M10175 2794 c-38 -9 -93 -27 -122 -41 -60 -30 -169 -123 -178 -153
-8 -25 -27 -26 -24 -2 1 9 1 57 0 105 l-1 88 -235 -2 c-129 -1 -235 -5 -235
-8 -6 -79 -2 -1402 3 -1408 5 -4 111 -8 235 -8 l227 0 6 375 c6 394 8 417 54
490 61 96 156 140 325 149 l115 6 0 210 0 210 -50 2 c-27 1 -81 -5 -120 -13z"/>
<path d="M13702 2794 c-332 -73 -549 -329 -569 -671 -12 -232 46 -406 189
-558 104 -112 249 -186 422 -216 106 -18 362 -7 456 21 121 35 232 95 307 168
l67 64 -49 44 c-28 24 -87 76 -132 114 l-82 71 -66 -45 c-91 -63 -155 -81
-290 -81 -106 0 -113 1 -180 35 -52 26 -80 48 -107 85 -46 60 -66 114 -48 125
6 4 233 8 503 9 446 1 492 3 501 18 12 21 0 218 -18 305 -58 269 -265 468
-540 517 -81 15 -287 12 -364 -5z m335 -370 c27 -16 62 -51 80 -78 33 -48 56
-112 47 -128 -3 -4 -129 -8 -280 -8 l-276 0 7 33 c21 95 89 174 174 201 29 10
75 14 123 12 65 -2 85 -7 125 -32z"/>
<path d="M10647 2782 l-67 -3 2 -707 3 -707 228 2 c126 1 231 3 233 5 2 2 6
317 9 700 4 604 3 697 -10 708 -14 11 -167 12 -398 2z"/>
</g>
</svg>
